PathFileType	4	(X/Y/Z)	D:\																																																																			
DataRate	CameraRate	NumFrames	NumMarkers	Units	OrigDataRate	OrigDataStartFrame	OrigNumFrames																																																															
240	240	15	21	mm	240	209	833																																																															
Frame#	Time	Top.Head			Front.Head			Rear.Head			R.Shoulder			R.Elbow			R.Wrist			L.Shoulder			L.Elbow			L.Wrist			Offset1			R.ASIS			L.ASIS			V.Sacral			R.Knee			R.Ankle			R.Toe			R.Heel			L.Knee			L.Ankle			L.Toe			L.Heel			V_Head			V_Pelvis		
		X1	Y1	Z1	X2	Y2	Z2	X3	Y3	Z3	X4	Y4	Z4	X5	Y5	Z5	X6	Y6	Z6	X7	Y7	Z7	X8	Y8	Z8	X9	Y9	Z9	X10	Y10	Z10	X11	Y11	Z11	X12	Y12	Z12	X13	Y13	Z13	X14	Y14	Z14	X15	Y15	Z15	X16	Y16	Z16	X17	Y17	Z17	X18	Y18	Z18	X19	Y19	Z19	X20	Y20	Z20	X21	Y21	Z21	X22	Y22	Z22	X23	Y23	Z23
																																																																						
209	0.867	445.82086	-216.68384	1750.63135	439.86713	-102.90659	1708.23364	441.37238	-292.12369	1690.51318	614.31519	-194.21349	1422.75781	619.6601	-31.43326	1142.57373	410.54901	4.92316	1298.13342	253.31491	-202.62663	1450.75134	235.70322	-34.93275	1158.40015	451.34433	-39.64565	1299.33008	534.06696	-313.68604	1269.23425	607.26794	-200.23166	918.38519	254.90579	-162.50133	908.75952	438.95612	-321.64987	938.11743	655.21484	-215.0009	436.06387	620.42242	-260.40329	94.65494	627.7373	-51.76677	48.75524	556.8255	-323.75104	42.47663	234.91826	-173.84198	471.76929	233.19656	-250.98175	99.02265	231.53833	-60.86844	52.48245	286.63751	-323.70331	44.21939	440.61975	-197.51514	1699.37341	423.32254	-250.80382	925.62085
210	0.871	445.80627	-216.01022	1750.66235	439.86652	-102.1981	1708.3009	441.3764	-291.43292	1690.49963	614.39819	-193.55685	1422.85095	619.71228	-31.12993	1142.46167	410.56714	5.42289	1297.87915	253.42352	-201.87016	1450.84155	235.70616	-34.43949	1158.35071	451.42883	-39.14879	1299.1073	534.17645	-313.34607	1269.5166	607.39478	-200.65903	918.36322	255.0083	-162.8295	908.72003	439.04117	-322.07169	938.21906	655.40814	-214.39001	435.9624	620.44019	-260.33539	94.67451	627.75262	-51.79599	48.7936	556.82819	-323.75317	42.47436	234.96236	-173.28354	471.73413	233.17386	-250.88724	98.98952	231.52528	-60.86871	52.51793	286.6348	-323.70245	44.21531	440.62146	-196.81552	1699.40027	423.41653	-251.17575	925.65192
211	0.875	445.79434	-215.319	1750.68616	439.87027	-101.45741	1708.36707	441.37744	-290.71725	1690.48047	614.49261	-192.87741	1422.94397	619.76349	-30.81371	1142.32751	410.58981	5.91929	1297.58618	253.53618	-201.08871	1450.92358	235.71696	-33.93639	1158.28345	451.5173	-38.64206	1298.88037	534.28882	-313.00446	1269.80408	607.51825	-201.1033	918.33185	255.10669	-163.18561	908.67383	439.12662	-322.5061	938.2973	655.58069	-213.77563	435.86121	620.46509	-260.27502	94.68758	627.76825	-51.82229	48.82845	556.82996	-323.75333	42.47052	234.99799	-172.70192	471.69879	233.15259	-250.80167	98.96225	231.51141	-60.87078	52.56001	286.63123	-323.69882	44.2106	440.62384	-196.08734	1699.42371	423.50909	-251.57138	925.66827
212	0.879	445.78738	-214.60637	1750.70276	439.87888	-100.6879	1708.42627	441.37811	-289.9816	1690.45569	614.5968	-192.17516	1423.03503	619.81433	-30.48039	1142.17004	410.61612	6.41158	1297.25867	253.65015	-200.27869	1450.99829	235.73155	-33.42614	1158.19653	451.60635	-38.13082	1298.64307	534.4054	-312.6543	1270.09631	607.64081	-201.56718	918.29169	255.20433	-163.56548	908.62079	439.21561	-322.95374	938.34845	655.72931	-213.15639	435.76196	620.49896	-260.22665	94.69449	627.78357	-51.8443	48.86102	556.83044	-323.75095	42.46489	235.02251	-172.09567	471.66034	233.13231	-250.72275	98.94305	231.49837	-60.87531	52.60915	286.62659	-323.69324	44.20497	440.62848	-195.33475	1699.44092	423.60184	-251.99016	925.66815
213	0.883	445.78629	-213.86937	1750.71021	439.89124	-99.89436	1708.4751	441.38049	-289.22708	1690.42334	614.7063	-191.44489	1423.12097	619.86804	-30.13111	1141.98682	410.64392	6.90409	1296.90271	253.76338	-199.43752	1451.06592	235.74408	-32.91528	1158.08765	451.6929	-37.61234	1298.3894	534.52539	-312.28839	1270.3916	607.76685	-202.05174	918.2417	255.30673	-163.96477	908.56055	439.31152	-323.41681	938.37152	655.85095	-212.52943	435.66275	620.54211	-260.19495	94.69717	627.79675	-51.86066	48.89255	556.83008	-323.7468	42.45777	235.03165	-171.46606	471.61533	233.11227	-250.64728	98.93264	231.48813	-60.88307	52.66467	286.62091	-323.68646	44.19848	440.63586	-194.56073	1699.44934	423.69858	-252.4303	925.65033
214	0.887	445.79034	-213.10733	1750.70544	439.90561	-99.08145	1708.51257	441.3858	-288.44882	1690.38	614.81342	-190.67863	1423.19714	619.92865	-29.77483	1141.77563	410.67212	7.40508	1296.52344	253.87383	-198.56578	1451.12646	235.74921	-32.41085	1157.9541	451.77518	-37.07973	1298.11426	534.64569	-311.90292	1270.68726	607.90045	-202.55487	918.18011	255.41946	-164.38033	908.49298	439.4166	-323.89832	938.36835	655.94305	-211.89172	435.55756	620.59332	-260.18274	94.69809	627.80573	-51.87039	48.92396	556.8299	-323.74261	42.44983	235.02121	-170.81427	471.56	233.09196	-250.57277	98.93064	231.48335	-60.89386	52.72491	286.61432	-323.67908	44.19123	440.64572	-193.76514	1699.44629	423.80405	-252.88873	925.61475
215	0.892	445.79874	-212.32175	1750.68433	439.92163	-98.25417	1708.53711	441.39514	-287.64252	1690.32104	614.91071	-189.87195	1423.25891	619.99988	-29.42625	1141.53418	410.70242	7.92282	1296.12451	253.98044	-197.66519	1451.17908	235.74469	-31.9163	1157.79333	451.85172	-36.52607	1297.81396	534.7627	-311.49823	1270.98108	608.04346	-203.07323	918.1048	255.54659	-164.80986	908.41754	439.53146	-324.40189	938.34229	656.00397	-211.24176	435.43857	620.64948	-260.18823	94.69881	627.8092	-51.8734	48.95595	556.83099	-323.74048	42.44207	234.98868	-170.13823	471.49188	233.0713	-250.49864	98.93586	231.48793	-60.906	52.78812	286.60672	-323.67139	44.18326	440.65839	-192.94835	1699.42908	423.92145	-253.36189	925.56183
216	0.896	445.81125	-211.51404	1750.64307	439.93967	-97.41498	1708.547	441.41022	-286.80942	1690.2417	614.99432	-189.02533	1423.30298	620.08405	-29.09944	1141.26025	410.73801	8.46209	1295.70642	254.08389	-196.7355	1451.22241	235.73233	-31.43117	1157.60254	451.92062	-35.94919	1297.48621	534.87555	-311.07675	1271.27271	608.19464	-203.6051	918.01349	255.6902	-165.25296	908.33197	439.65533	-324.93228	938.29596	656.03333	-210.58066	435.30008	620.70581	-260.20291	94.7	627.80719	-51.87061	48.98907	556.83417	-323.742	42.43566	234.93399	-169.43456	471.41132	233.0508	-250.42639	98.94656	231.5062	-60.91746	52.85316	286.59842	-323.66388	44.175	440.67496	-192.11221	1699.39429	424.05142	-253.84773	925.49115
217	0.9	445.82645	-210.68413	1750.57898	439.96011	-96.56186	1708.54041	441.4325	-285.95258	1690.13782	615.06458	-188.14279	1423.32642	620.1806	-28.80123	1140.95129	410.78113	9.0244	1295.26697	254.18648	-195.77525	1451.25513	235.71701	-30.95378	1157.37805	451.98041	-35.35489	1297.1283	534.98682	-310.64099	1271.5625	608.35181	-204.15068	917.90344	255.8511	-165.71246	908.23242	439.78659	-325.49313	938.22937	656.03198	-209.91048	435.14035	620.75751	-260.21466	94.70222	627.80029	-51.864	49.02379	556.83929	-323.7475	42.43156	234.85904	-168.7021	471.32224	233.0312	-250.35843	98.96053	231.5412	-60.92662	52.91928	286.59018	-323.65735	44.16741	440.69632	-191.25723	1699.33911	424.19376	-254.34692	925.40051
218	0.904	445.84097	-209.83243	1750.48914	439.98322	-95.69111	1708.5155	441.46121	-285.07138	1690.00574	615.12531	-187.23035	1423.32593	620.2854	-28.52894	1140.60547	410.83316	9.60907	1294.80151	254.29179	-194.78439	1451.27478	235.70395	-30.48281	1157.11731	452.03168	-34.75352	1296.73657	535.10138	-310.19315	1271.84937	608.51422	-204.71014	917.77155	256.02917	-166.19391	908.11499	439.92422	-326.08331	938.13892	656.00116	-209.23167	434.96014	620.80121	-260.21359	94.70663	627.78937	-51.85643	49.06087	556.84546	-323.75592	42.43026	234.76651	-167.9411	471.22928	233.01282	-250.29602	98.97501	231.59367	-60.93224	52.98565	286.58267	-323.6524	44.16132	440.7222	-190.38126	1699.26062	424.34906	-254.8622	925.2868
219	0.908	445.85181	-208.96158	1750.37012	440.00952	-94.80167	1708.46973	441.49292	-284.16309	1689.84253	615.18182	-186.29289	1423.2981	620.39258	-28.27291	1140.22351	410.89624	10.21362	1294.30505	254.40392	-193.76425	1451.27808	235.69641	-30.01608	1156.8186	452.07693	-34.15322	1296.30823	535.22382	-309.73535	1272.13037	608.68335	-205.28183	917.61603	256.22342	-166.70349	907.97784	440.0697	-326.69785	938.01898	655.94281	-208.54317	434.76099	620.83606	-260.19446	94.71461	627.77594	-51.85098	49.10147	556.85181	-323.76569	42.4315	234.659	-167.15059	471.13361	232.99532	-250.23836	98.98721	231.66185	-60.93377	53.05085	286.57632	-323.64926	44.15706	440.75122	-189.48238	1699.15613	424.51907	-255.3965	925.14697
220	0.913	445.85889	-208.07491	1750.21851	440.04056	-93.89659	1708.39868	441.52423	-283.22748	1689.64539	615.23779	-185.33144	1423.23999	620.49725	-28.0204	1139.80701	410.97308	10.83497	1293.77405	254.52658	-192.71536	1451.26062	235.69528	-29.55017	1156.48157	452.11996	-33.5556	1295.8429	535.35706	-309.26834	1272.40234	608.86139	-205.86244	917.43616	256.43246	-167.24753	907.82056	440.22754	-327.3316	937.86365	655.86145	-207.84427	434.54483	620.86316	-260.15512	94.72723	627.76239	-51.85049	49.14661	556.85791	-323.776	42.43462	234.53836	-166.32805	471.03049	232.97791	-250.18274	98.99483	231.74092	-60.93239	53.11265	286.57126	-323.64758	44.15442	440.78238	-188.56204	1699.02197	424.70621	-255.95244	924.97858
221	0.917	445.86429	-207.17311	1750.03235	440.07831	-92.98013	1708.29797	441.55365	-282.26746	1689.41125	615.29437	-184.34317	1423.1488	620.59735	-27.75909	1139.35571	411.0647	11.47144	1293.20654	254.66212	-191.63718	1451.21716	235.69965	-29.08219	1156.10449	452.16461	-32.9564	1295.34241	535.50195	-308.78946	1272.66272	609.04993	-206.44942	917.23181	256.65564	-167.8329	907.64215	440.40305	-327.98126	937.66943	655.76495	-207.13472	434.31421	620.88477	-260.09576	94.74471	627.7514	-51.85723	49.19677	556.86383	-323.78644	42.43889	234.40552	-165.46979	470.91202	232.95979	-250.1256	98.99644	231.82281	-60.93099	53.16855	286.56772	-323.64682	44.1529	440.81598	-187.62381	1698.85461	424.91266	-256.53281	924.77997
222	0.921	445.86996	-206.25302	1749.81079	440.12378	-92.05405	1708.16321	441.5806	-281.28427	1689.1366	615.35181	-183.32339	1423.02344	620.69342	-27.48086	1138.86719	411.16852	12.12323	1292.60095	254.81052	-190.52899	1451.14294	235.70753	-28.61162	1155.6842	452.21283	-32.34979	1294.80884	535.65814	-308.29248	1272.90979	609.24908	-207.04245	917.0025	256.89322	-168.46614	907.43951	440.59879	-328.6452	937.43579	655.66339	-206.41324	434.07144	620.90302	-260.01947	94.76662	627.74542	-51.87273	49.25217	556.86926	-323.79602	42.44346	234.25957	-164.57074	470.77206	232.94072	-250.06416	98.99136	231.89848	-60.93269	53.21701	286.56598	-323.64618	44.15183	440.85217	-186.66916	1698.6499	425.13995	-257.14053	924.55035
223	0.925	445.87683	-205.30957	1749.5531	440.17615	-91.11473	1707.99219	441.60431	-280.27542	1688.81824	615.41095	-182.26862	1422.86462	620.78729	-27.18397	1138.33728	411.27991	12.79178	1291.95483	254.96997	-189.39018	1451.03442	235.71701	-28.14036	1155.21753	452.26398	-31.73253	1294.24231	535.82544	-307.77029	1273.14209	609.4585	-207.64264	916.74847	257.14615	-169.15141	907.20764	440.81409	-329.32379	937.164	655.56689	-205.67619	433.8179	620.91956	-259.93222	94.79189	627.7467	-51.89747	49.31285	556.87396	-323.80347	42.44718	234.09674	-163.62584	470.60913	232.92123	-249.99724	98.97972	231.96147	-60.93911	53.25825	286.56604	-323.64517	44.15076	440.89023	-185.69507	1698.40515	425.38879	-257.77765	924.28918
